<mxfile host="app.diagrams.net" modified="2023-05-16T13:43:50.159Z" agent="Mozilla/5.0 (Windows NT 10.0; Win64; x64) AppleWebKit/537.36 (KHTML, like Gecko) Chrome/113.0.0.0 Safari/537.36" etag="ixY7SNtseOsk-pp6h0aC" version="21.3.2" type="github">
  <diagram name="第 1 页" id="gpBTiJxRfI4om3b5RJwR">
    <mxGraphModel dx="1562" dy="846" grid="1" gridSize="10" guides="1" tooltips="1" connect="1" arrows="1" fold="1" page="1" pageScale="1" pageWidth="827" pageHeight="1169" math="0" shadow="0">
      <root>
        <mxCell id="0" />
        <mxCell id="1" parent="0" />
        <mxCell id="pmYogyaA5uFI_jdSaK_Y-1" value="" style="ellipse;whiteSpace=wrap;html=1;aspect=fixed;" vertex="1" parent="1">
          <mxGeometry x="150" y="247" width="20" height="20" as="geometry" />
        </mxCell>
        <mxCell id="pmYogyaA5uFI_jdSaK_Y-20" value="" style="ellipse;whiteSpace=wrap;html=1;aspect=fixed;" vertex="1" parent="1">
          <mxGeometry x="179" y="300" width="20" height="20" as="geometry" />
        </mxCell>
        <mxCell id="pmYogyaA5uFI_jdSaK_Y-21" value="" style="ellipse;whiteSpace=wrap;html=1;aspect=fixed;" vertex="1" parent="1">
          <mxGeometry x="119" y="300" width="20" height="20" as="geometry" />
        </mxCell>
        <mxCell id="pmYogyaA5uFI_jdSaK_Y-25" value="" style="endArrow=classic;html=1;rounded=0;entryX=0.5;entryY=0;entryDx=0;entryDy=0;" edge="1" parent="1" target="pmYogyaA5uFI_jdSaK_Y-26">
          <mxGeometry width="50" height="50" relative="1" as="geometry">
            <mxPoint x="128" y="320" as="sourcePoint" />
            <mxPoint x="130" y="350" as="targetPoint" />
          </mxGeometry>
        </mxCell>
        <mxCell id="pmYogyaA5uFI_jdSaK_Y-26" value="" style="ellipse;whiteSpace=wrap;html=1;aspect=fixed;" vertex="1" parent="1">
          <mxGeometry x="122" y="358" width="20" height="20" as="geometry" />
        </mxCell>
        <mxCell id="pmYogyaA5uFI_jdSaK_Y-27" value="" style="ellipse;whiteSpace=wrap;html=1;aspect=fixed;" vertex="1" parent="1">
          <mxGeometry x="88" y="358" width="20" height="20" as="geometry" />
        </mxCell>
        <mxCell id="pmYogyaA5uFI_jdSaK_Y-28" value="" style="endArrow=classic;html=1;rounded=0;entryX=1;entryY=0;entryDx=0;entryDy=0;exitX=0.5;exitY=1;exitDx=0;exitDy=0;" edge="1" parent="1" target="pmYogyaA5uFI_jdSaK_Y-27">
          <mxGeometry width="50" height="50" relative="1" as="geometry">
            <mxPoint x="128" y="320" as="sourcePoint" />
            <mxPoint x="108" y="353" as="targetPoint" />
          </mxGeometry>
        </mxCell>
        <mxCell id="pmYogyaA5uFI_jdSaK_Y-29" value="" style="ellipse;whiteSpace=wrap;html=1;aspect=fixed;" vertex="1" parent="1">
          <mxGeometry x="54" y="408" width="20" height="20" as="geometry" />
        </mxCell>
        <mxCell id="pmYogyaA5uFI_jdSaK_Y-30" value="" style="endArrow=classic;html=1;rounded=0;entryX=1;entryY=0;entryDx=0;entryDy=0;exitX=0.5;exitY=1;exitDx=0;exitDy=0;" edge="1" parent="1">
          <mxGeometry width="50" height="50" relative="1" as="geometry">
            <mxPoint x="93" y="378" as="sourcePoint" />
            <mxPoint x="70" y="411" as="targetPoint" />
          </mxGeometry>
        </mxCell>
        <mxCell id="pmYogyaA5uFI_jdSaK_Y-31" value="" style="ellipse;whiteSpace=wrap;html=1;aspect=fixed;" vertex="1" parent="1">
          <mxGeometry x="159" y="358" width="20" height="20" as="geometry" />
        </mxCell>
        <mxCell id="pmYogyaA5uFI_jdSaK_Y-32" value="" style="endArrow=classic;html=1;rounded=0;entryX=0;entryY=0;entryDx=0;entryDy=0;" edge="1" parent="1">
          <mxGeometry width="50" height="50" relative="1" as="geometry">
            <mxPoint x="169" y="378" as="sourcePoint" />
            <mxPoint x="196.9289321881347" y="410.9289321881347" as="targetPoint" />
          </mxGeometry>
        </mxCell>
        <mxCell id="pmYogyaA5uFI_jdSaK_Y-33" value="" style="ellipse;whiteSpace=wrap;html=1;aspect=fixed;" vertex="1" parent="1">
          <mxGeometry x="189" y="408" width="20" height="20" as="geometry" />
        </mxCell>
        <mxCell id="pmYogyaA5uFI_jdSaK_Y-34" value="" style="ellipse;whiteSpace=wrap;html=1;aspect=fixed;" vertex="1" parent="1">
          <mxGeometry x="129" y="408" width="20" height="20" as="geometry" />
        </mxCell>
        <mxCell id="pmYogyaA5uFI_jdSaK_Y-35" value="" style="endArrow=classic;html=1;rounded=0;entryX=1;entryY=0;entryDx=0;entryDy=0;exitX=0.5;exitY=1;exitDx=0;exitDy=0;" edge="1" parent="1" target="pmYogyaA5uFI_jdSaK_Y-34">
          <mxGeometry width="50" height="50" relative="1" as="geometry">
            <mxPoint x="169" y="378" as="sourcePoint" />
            <mxPoint x="149" y="411" as="targetPoint" />
          </mxGeometry>
        </mxCell>
        <mxCell id="pmYogyaA5uFI_jdSaK_Y-36" value="" style="endArrow=classic;html=1;rounded=0;entryX=0.5;entryY=0;entryDx=0;entryDy=0;exitX=0.5;exitY=1;exitDx=0;exitDy=0;" edge="1" parent="1" target="pmYogyaA5uFI_jdSaK_Y-31">
          <mxGeometry width="50" height="50" relative="1" as="geometry">
            <mxPoint x="189" y="319" as="sourcePoint" />
            <mxPoint x="166" y="352" as="targetPoint" />
          </mxGeometry>
        </mxCell>
        <mxCell id="pmYogyaA5uFI_jdSaK_Y-39" value="" style="endArrow=classic;html=1;rounded=0;entryX=1;entryY=0;entryDx=0;entryDy=0;exitX=0.5;exitY=1;exitDx=0;exitDy=0;" edge="1" parent="1" target="pmYogyaA5uFI_jdSaK_Y-21">
          <mxGeometry width="50" height="50" relative="1" as="geometry">
            <mxPoint x="159" y="267" as="sourcePoint" />
            <mxPoint x="136" y="300" as="targetPoint" />
          </mxGeometry>
        </mxCell>
        <mxCell id="pmYogyaA5uFI_jdSaK_Y-40" value="" style="endArrow=classic;html=1;rounded=0;exitX=0.5;exitY=1;exitDx=0;exitDy=0;entryX=0;entryY=0;entryDx=0;entryDy=0;" edge="1" parent="1" target="pmYogyaA5uFI_jdSaK_Y-20">
          <mxGeometry width="50" height="50" relative="1" as="geometry">
            <mxPoint x="160.5" y="267" as="sourcePoint" />
            <mxPoint x="180" y="300" as="targetPoint" />
          </mxGeometry>
        </mxCell>
      </root>
    </mxGraphModel>
  </diagram>
</mxfile>
